# 3ds Max Wavefront OBJ Exporter v0.99 - (c)2007 guruware
# File Created: 02.08.2026 08:45:33

mtllib HoopModel.mtl

#
# object Torus001
#

v  -0.0000 -0.0000 19.5751
v  -0.0000 -1.5232 18.9442
v  7.2496 -1.5232 17.5021
v  7.4911 -0.0000 18.0851
v  -0.0000 -2.1542 17.4210
v  6.6667 -2.1542 16.0949
v  -0.0000 -1.5232 15.8978
v  6.0838 -1.5232 14.6876
v  -0.0000 -0.0000 15.2668
v  5.8424 -0.0000 14.1047
v  -0.0000 1.5232 15.8978
v  6.0838 1.5232 14.6876
v  -0.0000 2.1542 17.4210
v  6.6667 2.1542 16.0949
v  -0.0000 1.5232 18.9442
v  7.2496 1.5232 17.5021
v  13.3956 -1.5232 13.3956
v  13.8417 -0.0000 13.8417
v  12.3185 -2.1542 12.3185
v  11.2414 -1.5232 11.2414
v  10.7953 -0.0000 10.7953
v  11.2414 1.5232 11.2414
v  12.3185 2.1542 12.3185
v  13.3956 1.5232 13.3956
v  17.5021 -1.5232 7.2496
v  18.0851 -0.0000 7.4911
v  16.0949 -2.1542 6.6667
v  14.6876 -1.5232 6.0838
v  14.1047 -0.0000 5.8424
v  14.6876 1.5232 6.0838
v  16.0949 2.1542 6.6667
v  17.5021 1.5232 7.2496
v  18.9442 -1.5232 -0.0000
v  19.5751 0.0000 -0.0000
v  17.4210 -2.1542 -0.0000
v  15.8978 -1.5232 -0.0000
v  15.2668 0.0000 -0.0000
v  15.8978 1.5232 -0.0000
v  17.4210 2.1542 -0.0000
v  18.9442 1.5232 -0.0000
v  17.5021 -1.5232 -7.2496
v  18.0851 0.0000 -7.4911
v  16.0949 -2.1542 -6.6667
v  14.6876 -1.5232 -6.0838
v  14.1047 0.0000 -5.8424
v  14.6876 1.5232 -6.0838
v  16.0949 2.1542 -6.6667
v  17.5021 1.5232 -7.2496
v  13.3956 -1.5232 -13.3956
v  13.8417 0.0000 -13.8417
v  12.3185 -2.1542 -12.3185
v  11.2414 -1.5232 -11.2414
v  10.7953 0.0000 -10.7953
v  11.2414 1.5232 -11.2414
v  12.3185 2.1542 -12.3185
v  13.3956 1.5232 -13.3956
v  7.2496 -1.5232 -17.5021
v  7.4911 0.0000 -18.0851
v  6.6667 -2.1542 -16.0949
v  6.0838 -1.5232 -14.6876
v  5.8424 0.0000 -14.1047
v  6.0838 1.5232 -14.6876
v  6.6667 2.1542 -16.0949
v  7.2496 1.5232 -17.5021
v  -0.0000 -1.5232 -18.9442
v  -0.0000 0.0000 -19.5751
v  -0.0000 -2.1542 -17.4210
v  -0.0000 -1.5232 -15.8978
v  -0.0000 0.0000 -15.2668
v  -0.0000 1.5232 -15.8978
v  -0.0000 2.1542 -17.4210
v  -0.0000 1.5232 -18.9442
v  -7.2496 -1.5232 -17.5021
v  -7.4911 0.0000 -18.0851
v  -6.6667 -2.1542 -16.0949
v  -6.0838 -1.5232 -14.6876
v  -5.8424 0.0000 -14.1047
v  -6.0838 1.5232 -14.6876
v  -6.6667 2.1542 -16.0949
v  -7.2496 1.5232 -17.5021
v  -13.3956 -1.5232 -13.3956
v  -13.8417 0.0000 -13.8417
v  -12.3185 -2.1542 -12.3185
v  -11.2414 -1.5232 -11.2414
v  -10.7953 0.0000 -10.7953
v  -11.2414 1.5232 -11.2414
v  -12.3185 2.1542 -12.3185
v  -13.3956 1.5232 -13.3956
v  -17.5021 -1.5232 -7.2496
v  -18.0851 0.0000 -7.4911
v  -16.0949 -2.1542 -6.6667
v  -14.6876 -1.5232 -6.0838
v  -14.1047 0.0000 -5.8424
v  -14.6876 1.5232 -6.0838
v  -16.0949 2.1542 -6.6667
v  -17.5021 1.5232 -7.2496
v  -18.9442 -1.5232 0.0000
v  -19.5751 0.0000 0.0000
v  -17.4210 -2.1542 0.0000
v  -15.8978 -1.5232 0.0000
v  -15.2668 0.0000 0.0000
v  -15.8978 1.5232 0.0000
v  -17.4210 2.1542 0.0000
v  -18.9442 1.5232 0.0000
v  -17.5021 -1.5232 7.2496
v  -18.0851 -0.0000 7.4911
v  -16.0949 -2.1542 6.6667
v  -14.6876 -1.5232 6.0838
v  -14.1047 -0.0000 5.8424
v  -14.6876 1.5232 6.0838
v  -16.0949 2.1542 6.6667
v  -17.5021 1.5232 7.2496
v  -13.3956 -1.5232 13.3956
v  -13.8417 -0.0000 13.8417
v  -12.3185 -2.1542 12.3185
v  -11.2414 -1.5232 11.2414
v  -10.7953 -0.0000 10.7953
v  -11.2414 1.5232 11.2414
v  -12.3185 2.1542 12.3185
v  -13.3956 1.5232 13.3956
v  -7.2496 -1.5232 17.5021
v  -7.4911 -0.0000 18.0851
v  -6.6667 -2.1542 16.0949
v  -6.0838 -1.5232 14.6876
v  -5.8424 -0.0000 14.1047
v  -6.0838 1.5232 14.6876
v  -6.6667 2.1542 16.0949
v  -7.2496 1.5232 17.5021
# 128 vertices

vn 0.0000 -0.0000 1.0000
vn -0.0000 -0.6840 0.7294
vn 0.2791 -0.6840 0.6739
vn 0.3827 -0.0000 0.9239
vn 0.0000 -0.9989 0.0477
vn 0.0183 -0.9989 0.0441
vn -0.0000 -0.7317 -0.6816
vn -0.2608 -0.7317 -0.6297
vn -0.0000 0.0000 -1.0000
vn -0.3827 0.0000 -0.9239
vn -0.0000 0.7317 -0.6816
vn -0.2608 0.7317 -0.6297
vn 0.0000 0.9989 0.0477
vn 0.0183 0.9989 0.0441
vn 0.0000 0.6840 0.7294
vn 0.2791 0.6840 0.6739
vn 0.5158 -0.6840 0.5158
vn 0.7071 -0.0000 0.7071
vn 0.0338 -0.9989 0.0338
vn -0.4820 -0.7317 -0.4820
vn -0.7071 0.0000 -0.7071
vn -0.4820 0.7317 -0.4820
vn 0.0338 0.9989 0.0338
vn 0.5158 0.6840 0.5158
vn 0.6739 -0.6840 0.2791
vn 0.9239 -0.0000 0.3827
vn 0.0441 -0.9989 0.0183
vn -0.6297 -0.7317 -0.2608
vn -0.9239 0.0000 -0.3827
vn -0.6297 0.7317 -0.2608
vn 0.0441 0.9989 0.0183
vn 0.6739 0.6840 0.2791
vn 0.7294 -0.6840 -0.0000
vn 1.0000 -0.0000 -0.0000
vn 0.0477 -0.9989 -0.0000
vn -0.6816 -0.7317 -0.0000
vn -1.0000 -0.0000 0.0000
vn -0.6816 0.7317 0.0000
vn 0.0477 0.9989 0.0000
vn 0.7294 0.6840 0.0000
vn 0.6739 -0.6840 -0.2791
vn 0.9239 0.0000 -0.3827
vn 0.0441 -0.9989 -0.0183
vn -0.6297 -0.7317 0.2608
vn -0.9239 -0.0000 0.3827
vn -0.6297 0.7317 0.2608
vn 0.0441 0.9989 -0.0183
vn 0.6739 0.6840 -0.2791
vn 0.5158 -0.6840 -0.5158
vn 0.7071 0.0000 -0.7071
vn 0.0338 -0.9989 -0.0338
vn -0.4820 -0.7317 0.4820
vn -0.7071 -0.0000 0.7071
vn -0.4820 0.7317 0.4820
vn 0.0338 0.9989 -0.0338
vn 0.5158 0.6840 -0.5158
vn 0.2791 -0.6840 -0.6739
vn 0.3827 0.0000 -0.9239
vn 0.0183 -0.9989 -0.0441
vn -0.2608 -0.7317 0.6297
vn -0.3827 -0.0000 0.9239
vn -0.2608 0.7317 0.6297
vn 0.0183 0.9989 -0.0441
vn 0.2791 0.6840 -0.6739
vn -0.0000 -0.6840 -0.7294
vn -0.0000 -0.9989 -0.0477
vn 0.0000 -0.7317 0.6816
vn 0.0000 0.7317 0.6816
vn -0.0000 0.9989 -0.0477
vn -0.0000 0.6840 -0.7294
vn -0.2791 -0.6840 -0.6739
vn -0.0183 -0.9989 -0.0441
vn 0.2608 -0.7317 0.6297
vn 0.2608 0.7317 0.6297
vn -0.0183 0.9989 -0.0441
vn -0.2791 0.6840 -0.6739
vn -0.5158 -0.6840 -0.5158
vn -0.0338 -0.9989 -0.0338
vn 0.4820 -0.7317 0.4820
vn 0.4820 0.7317 0.4820
vn -0.0338 0.9989 -0.0338
vn -0.5158 0.6840 -0.5158
vn -0.6739 -0.6840 -0.2791
vn -0.0441 -0.9989 -0.0183
vn 0.6297 -0.7317 0.2608
vn 0.6297 0.7317 0.2608
vn -0.0441 0.9989 -0.0183
vn -0.6739 0.6840 -0.2791
vn -0.7294 -0.6840 0.0000
vn -0.0477 -0.9989 -0.0000
vn 0.6816 -0.7317 -0.0000
vn 1.0000 0.0000 -0.0000
vn 0.6816 0.7317 0.0000
vn -0.0477 0.9989 0.0000
vn -0.7294 0.6840 0.0000
vn -0.6739 -0.6840 0.2791
vn -0.9239 0.0000 0.3827
vn -0.0441 -0.9989 0.0183
vn 0.6297 -0.7317 -0.2608
vn 0.6297 0.7317 -0.2608
vn -0.0441 0.9989 0.0183
vn -0.6739 0.6840 0.2791
vn -0.5158 -0.6840 0.5158
vn -0.0338 -0.9989 0.0338
vn 0.4820 -0.7317 -0.4820
vn 0.4820 0.7317 -0.4820
vn -0.0338 0.9989 0.0338
vn -0.5158 0.6840 0.5158
vn -0.2791 -0.6840 0.6739
vn -0.0183 -0.9989 0.0441
vn 0.2608 -0.7317 -0.6297
vn 0.2608 0.7317 -0.6297
vn -0.0183 0.9989 0.0441
vn -0.2791 0.6840 0.6739
# 114 vertex normals

vt 0.0000 0.0000 0.0000
vt 0.1250 0.0000 0.0000
vt 0.1250 0.0625 0.0000
vt 0.0000 0.0625 0.0000
vt 0.2500 0.0000 0.0000
vt 0.2500 0.0625 0.0000
vt 0.3750 0.0000 0.0000
vt 0.3750 0.0625 0.0000
vt 0.5000 0.0000 0.0000
vt 0.5000 0.0625 0.0000
vt 0.6250 0.0000 0.0000
vt 0.6250 0.0625 0.0000
vt 0.7500 0.0000 0.0000
vt 0.7500 0.0625 0.0000
vt 0.8750 0.0000 0.0000
vt 0.8750 0.0625 0.0000
vt 1.0000 0.0000 0.0000
vt 1.0000 0.0625 0.0000
vt 0.1250 0.1250 0.0000
vt 0.0000 0.1250 0.0000
vt 0.2500 0.1250 0.0000
vt 0.3750 0.1250 0.0000
vt 0.5000 0.1250 0.0000
vt 0.6250 0.1250 0.0000
vt 0.7500 0.1250 0.0000
vt 0.8750 0.1250 0.0000
vt 1.0000 0.1250 0.0000
vt 0.1250 0.1875 0.0000
vt 0.0000 0.1875 0.0000
vt 0.2500 0.1875 0.0000
vt 0.3750 0.1875 0.0000
vt 0.5000 0.1875 0.0000
vt 0.6250 0.1875 0.0000
vt 0.7500 0.1875 0.0000
vt 0.8750 0.1875 0.0000
vt 1.0000 0.1875 0.0000
vt 0.1250 0.2500 0.0000
vt 0.0000 0.2500 0.0000
vt 0.2500 0.2500 0.0000
vt 0.3750 0.2500 0.0000
vt 0.5000 0.2500 0.0000
vt 0.6250 0.2500 0.0000
vt 0.7500 0.2500 0.0000
vt 0.8750 0.2500 0.0000
vt 1.0000 0.2500 0.0000
vt 0.1250 0.3125 0.0000
vt 0.0000 0.3125 0.0000
vt 0.2500 0.3125 0.0000
vt 0.3750 0.3125 0.0000
vt 0.5000 0.3125 0.0000
vt 0.6250 0.3125 0.0000
vt 0.7500 0.3125 0.0000
vt 0.8750 0.3125 0.0000
vt 1.0000 0.3125 0.0000
vt 0.1250 0.3750 0.0000
vt 0.0000 0.3750 0.0000
vt 0.2500 0.3750 0.0000
vt 0.3750 0.3750 0.0000
vt 0.5000 0.3750 0.0000
vt 0.6250 0.3750 0.0000
vt 0.7500 0.3750 0.0000
vt 0.8750 0.3750 0.0000
vt 1.0000 0.3750 0.0000
vt 0.1250 0.4375 0.0000
vt 0.0000 0.4375 0.0000
vt 0.2500 0.4375 0.0000
vt 0.3750 0.4375 0.0000
vt 0.5000 0.4375 0.0000
vt 0.6250 0.4375 0.0000
vt 0.7500 0.4375 0.0000
vt 0.8750 0.4375 0.0000
vt 1.0000 0.4375 0.0000
vt 0.1250 0.5000 0.0000
vt 0.0000 0.5000 0.0000
vt 0.2500 0.5000 0.0000
vt 0.3750 0.5000 0.0000
vt 0.5000 0.5000 0.0000
vt 0.6250 0.5000 0.0000
vt 0.7500 0.5000 0.0000
vt 0.8750 0.5000 0.0000
vt 1.0000 0.5000 0.0000
vt 0.1250 0.5625 0.0000
vt 0.0000 0.5625 0.0000
vt 0.2500 0.5625 0.0000
vt 0.3750 0.5625 0.0000
vt 0.5000 0.5625 0.0000
vt 0.6250 0.5625 0.0000
vt 0.7500 0.5625 0.0000
vt 0.8750 0.5625 0.0000
vt 1.0000 0.5625 0.0000
vt 0.1250 0.6250 0.0000
vt 0.0000 0.6250 0.0000
vt 0.2500 0.6250 0.0000
vt 0.3750 0.6250 0.0000
vt 0.5000 0.6250 0.0000
vt 0.6250 0.6250 0.0000
vt 0.7500 0.6250 0.0000
vt 0.8750 0.6250 0.0000
vt 1.0000 0.6250 0.0000
vt 0.1250 0.6875 0.0000
vt 0.0000 0.6875 0.0000
vt 0.2500 0.6875 0.0000
vt 0.3750 0.6875 0.0000
vt 0.5000 0.6875 0.0000
vt 0.6250 0.6875 0.0000
vt 0.7500 0.6875 0.0000
vt 0.8750 0.6875 0.0000
vt 1.0000 0.6875 0.0000
vt 0.1250 0.7500 0.0000
vt 0.0000 0.7500 0.0000
vt 0.2500 0.7500 0.0000
vt 0.3750 0.7500 0.0000
vt 0.5000 0.7500 0.0000
vt 0.6250 0.7500 0.0000
vt 0.7500 0.7500 0.0000
vt 0.8750 0.7500 0.0000
vt 1.0000 0.7500 0.0000
vt 0.1250 0.8125 0.0000
vt 0.0000 0.8125 0.0000
vt 0.2500 0.8125 0.0000
vt 0.3750 0.8125 0.0000
vt 0.5000 0.8125 0.0000
vt 0.6250 0.8125 0.0000
vt 0.7500 0.8125 0.0000
vt 0.8750 0.8125 0.0000
vt 1.0000 0.8125 0.0000
vt 0.1250 0.8750 0.0000
vt 0.0000 0.8750 0.0000
vt 0.2500 0.8750 0.0000
vt 0.3750 0.8750 0.0000
vt 0.5000 0.8750 0.0000
vt 0.6250 0.8750 0.0000
vt 0.7500 0.8750 0.0000
vt 0.8750 0.8750 0.0000
vt 1.0000 0.8750 0.0000
vt 0.1250 0.9375 0.0000
vt 0.0000 0.9375 0.0000
vt 0.2500 0.9375 0.0000
vt 0.3750 0.9375 0.0000
vt 0.5000 0.9375 0.0000
vt 0.6250 0.9375 0.0000
vt 0.7500 0.9375 0.0000
vt 0.8750 0.9375 0.0000
vt 1.0000 0.9375 0.0000
vt 0.1250 1.0000 0.0000
vt 0.0000 1.0000 0.0000
vt 0.2500 1.0000 0.0000
vt 0.3750 1.0000 0.0000
vt 0.5000 1.0000 0.0000
vt 0.6250 1.0000 0.0000
vt 0.7500 1.0000 0.0000
vt 0.8750 1.0000 0.0000
vt 1.0000 1.0000 0.0000
# 153 texture coords

o Torus001
g Torus001
usemtl wire_177148027
s 1
f 1/1/1 2/2/2 3/3/3 4/4/4 
f 2/2/2 5/5/5 6/6/6 3/3/3 
f 5/5/5 7/7/7 8/8/8 6/6/6 
f 7/7/7 9/9/9 10/10/10 8/8/8 
f 9/9/9 11/11/11 12/12/12 10/10/10 
f 11/11/11 13/13/13 14/14/14 12/12/12 
f 13/13/13 15/15/15 16/16/16 14/14/14 
f 15/15/15 1/17/1 4/18/4 16/16/16 
f 4/4/4 3/3/3 17/19/17 18/20/18 
f 3/3/3 6/6/6 19/21/19 17/19/17 
f 6/6/6 8/8/8 20/22/20 19/21/19 
f 8/8/8 10/10/10 21/23/21 20/22/20 
f 10/10/10 12/12/12 22/24/22 21/23/21 
f 12/12/12 14/14/14 23/25/23 22/24/22 
f 14/14/14 16/16/16 24/26/24 23/25/23 
f 16/16/16 4/18/4 18/27/18 24/26/24 
f 18/20/18 17/19/17 25/28/25 26/29/26 
f 17/19/17 19/21/19 27/30/27 25/28/25 
f 19/21/19 20/22/20 28/31/28 27/30/27 
f 20/22/20 21/23/21 29/32/29 28/31/28 
f 21/23/21 22/24/22 30/33/30 29/32/29 
f 22/24/22 23/25/23 31/34/31 30/33/30 
f 23/25/23 24/26/24 32/35/32 31/34/31 
f 24/26/24 18/27/18 26/36/26 32/35/32 
f 26/29/26 25/28/25 33/37/33 34/38/34 
f 25/28/25 27/30/27 35/39/35 33/37/33 
f 27/30/27 28/31/28 36/40/36 35/39/35 
f 28/31/28 29/32/29 37/41/37 36/40/36 
f 29/32/29 30/33/30 38/42/38 37/41/37 
f 30/33/30 31/34/31 39/43/39 38/42/38 
f 31/34/31 32/35/32 40/44/40 39/43/39 
f 32/35/32 26/36/26 34/45/34 40/44/40 
f 34/38/34 33/37/33 41/46/41 42/47/42 
f 33/37/33 35/39/35 43/48/43 41/46/41 
f 35/39/35 36/40/36 44/49/44 43/48/43 
f 36/40/36 37/41/37 45/50/45 44/49/44 
f 37/41/37 38/42/38 46/51/46 45/50/45 
f 38/42/38 39/43/39 47/52/47 46/51/46 
f 39/43/39 40/44/40 48/53/48 47/52/47 
f 40/44/40 34/45/34 42/54/42 48/53/48 
f 42/47/42 41/46/41 49/55/49 50/56/50 
f 41/46/41 43/48/43 51/57/51 49/55/49 
f 43/48/43 44/49/44 52/58/52 51/57/51 
f 44/49/44 45/50/45 53/59/53 52/58/52 
f 45/50/45 46/51/46 54/60/54 53/59/53 
f 46/51/46 47/52/47 55/61/55 54/60/54 
f 47/52/47 48/53/48 56/62/56 55/61/55 
f 48/53/48 42/54/42 50/63/50 56/62/56 
f 50/56/50 49/55/49 57/64/57 58/65/58 
f 49/55/49 51/57/51 59/66/59 57/64/57 
f 51/57/51 52/58/52 60/67/60 59/66/59 
f 52/58/52 53/59/53 61/68/61 60/67/60 
f 53/59/53 54/60/54 62/69/62 61/68/61 
f 54/60/54 55/61/55 63/70/63 62/69/62 
f 55/61/55 56/62/56 64/71/64 63/70/63 
f 56/62/56 50/63/50 58/72/58 64/71/64 
f 58/65/58 57/64/57 65/73/65 66/74/9 
f 57/64/57 59/66/59 67/75/66 65/73/65 
f 59/66/59 60/67/60 68/76/67 67/75/66 
f 60/67/60 61/68/61 69/77/1 68/76/67 
f 61/68/61 62/69/62 70/78/68 69/77/1 
f 62/69/62 63/70/63 71/79/69 70/78/68 
f 63/70/63 64/71/64 72/80/70 71/79/69 
f 64/71/64 58/72/58 66/81/9 72/80/70 
f 66/74/9 65/73/65 73/82/71 74/83/10 
f 65/73/65 67/75/66 75/84/72 73/82/71 
f 67/75/66 68/76/67 76/85/73 75/84/72 
f 68/76/67 69/77/1 77/86/4 76/85/73 
f 69/77/1 70/78/68 78/87/74 77/86/4 
f 70/78/68 71/79/69 79/88/75 78/87/74 
f 71/79/69 72/80/70 80/89/76 79/88/75 
f 72/80/70 66/81/9 74/90/10 80/89/76 
f 74/83/10 73/82/71 81/91/77 82/92/21 
f 73/82/71 75/84/72 83/93/78 81/91/77 
f 75/84/72 76/85/73 84/94/79 83/93/78 
f 76/85/73 77/86/4 85/95/18 84/94/79 
f 77/86/4 78/87/74 86/96/80 85/95/18 
f 78/87/74 79/88/75 87/97/81 86/96/80 
f 79/88/75 80/89/76 88/98/82 87/97/81 
f 80/89/76 74/90/10 82/99/21 88/98/82 
f 82/92/21 81/91/77 89/100/83 90/101/29 
f 81/91/77 83/93/78 91/102/84 89/100/83 
f 83/93/78 84/94/79 92/103/85 91/102/84 
f 84/94/79 85/95/18 93/104/26 92/103/85 
f 85/95/18 86/96/80 94/105/86 93/104/26 
f 86/96/80 87/97/81 95/106/87 94/105/86 
f 87/97/81 88/98/82 96/107/88 95/106/87 
f 88/98/82 82/99/21 90/108/29 96/107/88 
f 90/101/29 89/100/83 97/109/89 98/110/37 
f 89/100/83 91/102/84 99/111/90 97/109/89 
f 91/102/84 92/103/85 100/112/91 99/111/90 
f 92/103/85 93/104/26 101/113/92 100/112/91 
f 93/104/26 94/105/86 102/114/93 101/113/92 
f 94/105/86 95/106/87 103/115/94 102/114/93 
f 95/106/87 96/107/88 104/116/95 103/115/94 
f 96/107/88 90/108/29 98/117/37 104/116/95 
f 98/110/37 97/109/89 105/118/96 106/119/97 
f 97/109/89 99/111/90 107/120/98 105/118/96 
f 99/111/90 100/112/91 108/121/99 107/120/98 
f 100/112/91 101/113/92 109/122/42 108/121/99 
f 101/113/92 102/114/93 110/123/100 109/122/42 
f 102/114/93 103/115/94 111/124/101 110/123/100 
f 103/115/94 104/116/95 112/125/102 111/124/101 
f 104/116/95 98/117/37 106/126/97 112/125/102 
f 106/119/97 105/118/96 113/127/103 114/128/53 
f 105/118/96 107/120/98 115/129/104 113/127/103 
f 107/120/98 108/121/99 116/130/105 115/129/104 
f 108/121/99 109/122/42 117/131/50 116/130/105 
f 109/122/42 110/123/100 118/132/106 117/131/50 
f 110/123/100 111/124/101 119/133/107 118/132/106 
f 111/124/101 112/125/102 120/134/108 119/133/107 
f 112/125/102 106/126/97 114/135/53 120/134/108 
f 114/128/53 113/127/103 121/136/109 122/137/61 
f 113/127/103 115/129/104 123/138/110 121/136/109 
f 115/129/104 116/130/105 124/139/111 123/138/110 
f 116/130/105 117/131/50 125/140/58 124/139/111 
f 117/131/50 118/132/106 126/141/112 125/140/58 
f 118/132/106 119/133/107 127/142/113 126/141/112 
f 119/133/107 120/134/108 128/143/114 127/142/113 
f 120/134/108 114/135/53 122/144/61 128/143/114 
f 122/137/61 121/136/109 2/145/2 1/146/1 
f 121/136/109 123/138/110 5/147/5 2/145/2 
f 123/138/110 124/139/111 7/148/7 5/147/5 
f 124/139/111 125/140/58 9/149/9 7/148/7 
f 125/140/58 126/141/112 11/150/11 9/149/9 
f 126/141/112 127/142/113 13/151/13 11/150/11 
f 127/142/113 128/143/114 15/152/15 13/151/13 
f 128/143/114 122/144/61 1/153/1 15/152/15 
# 128 polygons

